<?xml version="1.0" encoding="UTF-8"?>
<svg xmlns="http://www.w3.org/2000/svg" viewBox="0 0 800 1200">
  <defs>
    <style>
      .a {
        fill: #f0f2f4;
      }

      .b {
        fill: #c1cad1;
      }
    </style>
  </defs>
  <path class="a" d="M.03,1199.97c0-63.76.03-460.89.03-524.65,1.13-1.15,2.38-2.2,3.36-3.45,8.42-10.72,17.03-21.18,27.25-30.37,12.83-11.53,27.98-16.15,44.68-16.79,12.07-.46,23.79,1.96,35.23,5.6,18.88,6,36,15.59,52.35,26.54,24.07,16.13,45.8,35.22,67.36,54.46,8.28,7.39,17.63,11.97,28.73,11.89,9.04-.07,17.3-3.38,24.97-8.12,12.44-7.7,22.57-18.06,31.53-29.33,10.95-13.77,21.15-28.15,31.16-42.63,17.96-25.98,35.23-52.45,53.37-78.3,14.73-20.99,31.42-40.39,50.8-57.36,12.6-11.03,26.27-20.32,41.79-26.78,17.42-7.26,35.51-10.22,54.25-7.84,17.06,2.17,33.2,7.65,48.69,15.02,30.99,14.74,57.5,35.77,82.24,59.15,16.45,15.54,31.97,32.02,46.32,49.54,11.49,14.04,23.1,28.03,33.93,42.58,13.48,18.13,26.2,36.82,39.3,55.24.65.91,1.7,1.52,2.57,2.27,0,55.65-.05,447.73.04,503.38"/>
  <path class="b" d="M800,0c-.06,120.05-.06,576.59-.06,696.65-.87-.75-1.93-1.37-2.57-2.27-13.09-18.42-25.81-37.11-39.3-55.24-10.82-14.55-22.43-28.54-33.93-42.58-14.34-17.53-29.86-34-46.32-49.54-24.75-23.38-51.26-44.41-82.24-59.15-15.49-7.37-31.63-12.85-48.69-15.02-18.75-2.38-36.83.58-54.25,7.84-15.52,6.46-29.2,15.75-41.79,26.78-19.37,16.97-36.07,36.36-50.8,57.36-18.14,25.86-35.41,52.32-53.37,78.3-10.01,14.48-20.21,28.86-31.16,42.63-8.96,11.27-19.09,21.63-31.53,29.33-7.67,4.75-15.93,8.06-24.97,8.12-11.1.08-20.45-4.5-28.73-11.89-21.56-19.24-43.29-38.33-67.36-54.46-16.35-10.95-33.47-20.54-52.35-26.54-11.44-3.64-23.16-6.06-35.23-5.6-16.71.63-31.85,5.25-44.68,16.79-10.21,9.18-18.83,19.65-27.25,30.37-.99,1.26-2.24,2.31-3.36,3.45,0-112.95,0-562.37-.05-675.32M264.68,570.86c0-18.61-14.59-33.48-32.86-33.5-18.24-.02-33.12,14.93-33.13,33.3,0,18.32,14.91,33.35,33.09,33.35,18.1,0,32.9-14.91,32.9-33.14Z"/>
  <path class="a" d="M264.68,570.86c0,18.24-14.8,33.14-32.9,33.14-18.19,0-33.1-15.03-33.09-33.35,0-18.37,14.88-33.32,33.13-33.3,18.28.02,32.87,14.89,32.86,33.5Z"/>
</svg>