<?xml version="1.0" encoding="UTF-8"?>
<svg xmlns="http://www.w3.org/2000/svg" viewBox="0 0 1200 800">
  <defs>
    <style>
      .a {
        fill: #f0f2f4;
      }

      .b {
        fill: #c1cad1;
      }
    </style>
  </defs>
  <path class="a" d="M1199.9,544.97c0,83.48-.03,166.96.1,250.44,0,3.75-.85,4.59-4.59,4.59-398.44-.1-796.88-.09-1195.32-.09,0-95.64,0-191.28,0-286.93,1.69-1.72,3.57-3.3,5.05-5.18,12.63-16.08,25.55-31.77,40.87-45.55,19.24-17.3,41.96-24.23,67.02-25.18,18.11-.69,35.68,2.94,52.85,8.4,28.31,9.01,53.99,23.38,78.52,39.81,36.11,24.19,68.7,52.83,101.04,81.69,12.42,11.09,26.45,17.96,43.09,17.84,13.56-.1,25.96-5.06,37.46-12.19,18.66-11.55,33.85-27.09,47.29-44,16.42-20.65,31.73-42.23,46.74-63.94,26.94-38.97,52.85-78.67,80.06-117.46,22.09-31.49,47.13-60.59,76.19-86.04,18.9-16.55,39.41-30.48,62.69-40.18,26.13-10.89,53.26-15.33,81.38-11.76,25.59,3.25,49.79,11.48,73.03,22.53,46.48,22.11,86.24,53.66,123.37,88.72,24.68,23.31,47.96,48.03,69.48,74.32,17.24,21.07,34.65,42.04,50.89,63.87,20.23,27.19,39.31,55.24,58.95,82.86.97,1.36,2.56,2.28,3.86,3.41Z"/>
  <path class="b" d="M1199.9,544.97c-1.3-1.13-2.89-2.05-3.86-3.41-19.64-27.63-38.72-55.67-58.95-82.86-16.24-21.83-33.65-42.8-50.89-63.87-21.52-26.29-44.8-51-69.48-74.32-37.12-35.06-76.89-66.62-123.37-88.72-23.24-11.05-47.44-19.28-73.03-22.53-28.12-3.57-55.24.87-81.38,11.76-23.28,9.7-43.8,23.63-62.69,40.18-29.06,25.45-54.1,54.55-76.19,86.04-27.21,38.79-53.11,78.48-80.06,117.46-15.01,21.71-30.32,43.29-46.74,63.94-13.44,16.91-28.63,32.44-47.29,44-11.5,7.12-23.9,12.09-37.46,12.19-16.65.12-30.67-6.75-43.09-17.84-32.35-28.86-64.93-57.5-101.04-81.69-24.53-16.43-50.21-30.8-78.52-39.81-17.17-5.46-34.74-9.09-52.85-8.4-25.06.95-47.78,7.88-67.02,25.18-15.32,13.77-28.24,29.47-40.87,45.55-1.48,1.89-3.35,3.46-5.05,5.18C.08,343.56.09,174.14,0,4.72,0,1.18.46,0,4.47,0,401.49.12,798.51.12,1195.53,0c4.02,0,4.46,1.21,4.46,4.73-.09,180.08-.08,360.16-.08,540.24ZM397.02,356.28c0-27.92-21.88-50.22-49.3-50.25-27.37-.03-49.67,22.4-49.69,49.95-.01,27.48,22.36,50.02,49.64,50.02,27.15,0,49.34-22.36,49.35-49.72Z"/>
  <path class="a" d="M397.02,356.28c0,27.36-22.2,49.71-49.35,49.72-27.28,0-49.65-22.54-49.64-50.02.01-27.55,22.32-49.97,49.69-49.95,27.42.03,49.3,22.33,49.3,50.25Z"/>
</svg>